<svg xmlns="http://www.w3.org/2000/svg" version="1.1" xmlns:xlink="http://www.w3.org/1999/xlink" xmlns:svgjs="http://svgjs.dev/svgjs" width="1000" height="1000"><g clip-path="url(#SvgjsClipPath1368)"><rect width="1000" height="1000" fill="#ffffff"></rect><g transform="matrix(7.608695652173913,0,0,7.608695652173913,153.80434782608694,150)"><svg xmlns="http://www.w3.org/2000/svg" version="1.1" xmlns:xlink="http://www.w3.org/1999/xlink" xmlns:svgjs="http://svgjs.dev/svgjs" width="91" height="92"><svg width="91" height="92" viewBox="0 0 91 92" fill="none" xmlns="http://www.w3.org/2000/svg">
<g clip-path="url(#clip0_3_101)">
<rect width="91" height="92" fill="white"></rect>
<rect x="11.5083" y="61.5557" width="29.4335" height="10.6345" rx="2" transform="rotate(-75 11.5083 61.5557)" fill="#355987"></rect>
<rect x="22.1404" y="72.9178" width="47.0287" height="9.90601" rx="2" transform="rotate(-61.34 22.1404 72.9178)" fill="#355987"></rect>
<circle cx="41.8459" cy="46.8983" r="27.5" stroke="#C7D9F0" stroke-width="4"></circle>
<rect x="4" y="45.404" width="25.0872" height="10.8267" rx="2" transform="rotate(-41.5526 4 45.404)" fill="#3777C0"></rect>
<rect x="11.0359" y="60.3137" width="47.4419" height="10.8267" rx="2" transform="rotate(-41.5526 11.0359 60.3137)" fill="#3777C0"></rect>
<rect x="21.8318" y="72.3226" width="70.5277" height="10.8267" rx="2" transform="rotate(-41.5526 21.8318 72.3226)" fill="#3777C0"></rect>
<path d="M84.1193 21.7313C85.2927 21.6988 86.2417 22.679 86.1712 23.8507L85.3781 37.0297C85.2736 38.7663 83.1549 39.5506 81.9448 38.3007L69.5401 25.4879C68.33 24.2379 69.1825 22.1457 70.9216 22.0975L84.1193 21.7313Z" fill="#3777C0"></path>
</g>
<defs>
<clipPath id="clip0_3_101">
<rect width="91" height="92" fill="white"></rect>
</clipPath>
<clipPath id="SvgjsClipPath1368"><rect width="1000" height="1000" x="0" y="0" rx="250" ry="250"></rect></clipPath></defs>
</svg></svg></g></g></svg>