<svg width="99" height="31" viewBox="0 0 99 31" fill="none" xmlns="http://www.w3.org/2000/svg">
<rect x="3.3584" y="22.1643" width="13.1644" height="4.75638" rx="2" transform="rotate(-75 3.3584 22.1643)" fill="#355987"/>
<rect x="8.11328" y="27.246" width="21.034" height="4.43055" rx="2" transform="rotate(-61.34 8.11328 27.246)" fill="#355987"/>
<circle cx="16.9266" cy="15.6086" r="11.6941" stroke="#C7D9F0" stroke-width="3"/>
<rect y="14.9402" width="11.2205" height="4.84235" rx="2" transform="rotate(-41.5526 0 14.9402)" fill="#3777C0"/>
<rect x="3.14648" y="21.6087" width="21.2188" height="4.84235" rx="2" transform="rotate(-41.5526 3.14648 21.6087)" fill="#3777C0"/>
<rect x="7.97559" y="26.9798" width="31.5442" height="4.84235" rx="2" transform="rotate(-41.5526 7.97559 26.9798)" fill="#3777C0"/>
<path d="M35.7191 4.35563C36.3058 4.33935 36.7803 4.82946 36.745 5.41531L36.4116 10.9556C36.3594 11.8239 35.3 12.216 34.695 11.5911L29.4802 6.20474C28.8752 5.57976 29.3014 4.53367 30.171 4.50955L35.7191 4.35563Z" fill="#3777C0"/>
<path d="M51.8535 15.8574H48.2012L48.1816 13.7285H51.1992C51.7331 13.7285 52.166 13.6634 52.498 13.5332C52.8366 13.403 53.084 13.2142 53.2402 12.9668C53.3965 12.7129 53.4746 12.4004 53.4746 12.0293C53.4746 11.6061 53.3965 11.2643 53.2402 11.0039C53.084 10.7435 52.8366 10.5547 52.498 10.4375C52.166 10.3138 51.7363 10.252 51.209 10.252H49.3535V22H46.1699V7.78125H51.209C52.0618 7.78125 52.8236 7.85938 53.4941 8.01562C54.1647 8.17188 54.7344 8.41276 55.2031 8.73828C55.6784 9.0638 56.0397 9.4707 56.2871 9.95898C56.5345 10.4473 56.6582 11.0234 56.6582 11.6875C56.6582 12.2669 56.528 12.8073 56.2676 13.3086C56.0137 13.8099 55.6035 14.2168 55.0371 14.5293C54.4707 14.8418 53.7122 15.0111 52.7617 15.0371L51.8535 15.8574ZM51.7266 22H47.3906L48.543 19.5391H51.7266C52.2148 19.5391 52.612 19.4609 52.918 19.3047C53.224 19.1484 53.4486 18.9368 53.5918 18.6699C53.735 18.403 53.8066 18.1035 53.8066 17.7715C53.8066 17.3809 53.7383 17.0423 53.6016 16.7559C53.4714 16.4694 53.263 16.248 52.9766 16.0918C52.6966 15.9355 52.3223 15.8574 51.8535 15.8574H49.002L49.0215 13.7285H52.5078L53.25 14.5684C54.1549 14.5488 54.8776 14.6953 55.418 15.0078C55.9648 15.3138 56.3587 15.7174 56.5996 16.2188C56.8405 16.7201 56.9609 17.2507 56.9609 17.8105C56.9609 18.735 56.7624 19.5098 56.3652 20.1348C55.9681 20.7533 55.3789 21.2188 54.5977 21.5312C53.8229 21.8438 52.8659 22 51.7266 22ZM64.0781 11.4336V22H61.0215V11.4336H64.0781ZM60.8359 8.69922C60.8359 8.25651 60.9922 7.89518 61.3047 7.61523C61.6172 7.32878 62.0273 7.18555 62.5352 7.18555C63.043 7.18555 63.4531 7.32878 63.7656 7.61523C64.0846 7.89518 64.2441 8.25651 64.2441 8.69922C64.2441 9.13542 64.0846 9.49674 63.7656 9.7832C63.4531 10.0632 63.043 10.2031 62.5352 10.2031C62.0273 10.2031 61.6172 10.0632 61.3047 9.7832C60.9922 9.49674 60.8359 9.13542 60.8359 8.69922ZM74.4277 19.6367V7H77.4941V22H74.7402L74.4277 19.6367ZM67.8457 16.8438V16.6387C67.8457 15.8379 67.9336 15.1087 68.1094 14.4512C68.2917 13.7871 68.5553 13.2174 68.9004 12.7422C69.252 12.2604 69.6849 11.8893 70.1992 11.6289C70.7135 11.3685 71.3027 11.2383 71.9668 11.2383C72.5788 11.2383 73.1126 11.375 73.5684 11.6484C74.0241 11.9154 74.4115 12.293 74.7305 12.7812C75.056 13.263 75.3197 13.8327 75.5215 14.4902C75.7233 15.1413 75.8763 15.8477 75.9805 16.6094V16.9609C75.8828 17.6901 75.7298 18.3704 75.5215 19.002C75.3197 19.6335 75.056 20.1901 74.7305 20.6719C74.4115 21.1471 74.0208 21.5215 73.5586 21.7949C73.1029 22.0618 72.5658 22.1953 71.9473 22.1953C71.2832 22.1953 70.694 22.0618 70.1797 21.7949C69.6719 21.528 69.2454 21.1536 68.9004 20.6719C68.5553 20.1901 68.2917 19.6237 68.1094 18.9727C67.9336 18.3216 67.8457 17.612 67.8457 16.8438ZM70.8926 16.6387V16.8438C70.8926 17.2604 70.9219 17.6478 70.9805 18.0059C71.0456 18.3639 71.1497 18.6797 71.293 18.9531C71.4362 19.2266 71.625 19.4414 71.8594 19.5977C72.0938 19.7474 72.3802 19.8223 72.7188 19.8223C73.1745 19.8223 73.5488 19.7181 73.8418 19.5098C74.1348 19.2949 74.3561 18.9987 74.5059 18.6211C74.6556 18.2435 74.7337 17.804 74.7402 17.3027V16.2773C74.7402 15.8607 74.6979 15.4863 74.6133 15.1543C74.5286 14.8223 74.4017 14.5423 74.2324 14.3145C74.0697 14.0866 73.8646 13.9141 73.6172 13.7969C73.3698 13.6732 73.0768 13.6113 72.7383 13.6113C72.4062 13.6113 72.123 13.6895 71.8887 13.8457C71.6543 13.9954 71.4622 14.207 71.3125 14.4805C71.1693 14.7539 71.0618 15.0762 70.9902 15.4473C70.9251 15.8118 70.8926 16.209 70.8926 16.6387ZM84.7383 7V22H81.6816V7H84.7383ZM92.1191 20.7793L94.8828 11.4336H98.1641L93.916 23.582C93.8249 23.849 93.7012 24.1354 93.5449 24.4414C93.3952 24.7474 93.1901 25.0404 92.9297 25.3203C92.6758 25.6003 92.3503 25.8281 91.9531 26.0039C91.556 26.1797 91.0677 26.2676 90.4883 26.2676C90.1953 26.2676 89.9674 26.2513 89.8047 26.2188C89.6484 26.1927 89.4401 26.1471 89.1797 26.082L89.1699 23.8652C89.2546 23.8652 89.3294 23.8652 89.3945 23.8652C89.4661 23.8717 89.5378 23.875 89.6094 23.875C89.974 23.875 90.2669 23.8359 90.4883 23.7578C90.7161 23.6797 90.8919 23.5625 91.0156 23.4062C91.1458 23.2565 91.25 23.0645 91.3281 22.8301L92.1191 20.7793ZM91.1914 11.4336L93.3789 18.9531L93.75 22.1855L91.6895 22.293L87.9102 11.4336H91.1914Z" fill="#3777C0"/>
</svg>
